# xmcd
#
# Track frame offsets:
#	150
#	17359
#	27683
#	43301
#	56629
#	68607
#	88801
#	103119
#	115224
#	128003
#
# Disc length: 1924 seconds
# Revision: 0
# Processed by: cddbd v1.5.2PL0 Copyright (c) Steve Scherf et al.
# Submitted via: dBpowerAMP V12.0
#
DISCID=8607820a
DTITLE=Phil Everly - Star Spangled Springer [RCA]
DYEAR=1973
DGENRE=Country
TTITLE0=The Air That I Breathe
TTITLE1=Sweet Grass Country
TTITLE2=God Bless Older Ladies
TTITLE3=It Pleases Me To Please You
TTITLE4=Lady Anne
TTITLE5=Red, White And Blue
TTITLE6=Our Song
TTITLE7=Poisonberry Pie
TTITLE8=La Divorce
TTITLE9=Snowflake Bombardier
EXTD=
EXTT0=
EXTT1=
EXTT2=
EXTT3=
EXTT4=
EXTT5=
EXTT6=
EXTT7=
EXTT8=
EXTT9=
PLAYORDER=
